# xmcd
#
# Track frame offsets: 
#        150
#        12155
#        26194
#        35746
#        49967
#        65613
#        81116
#        96881
#        112574
#        128263
#        140856
#        154636
#        163871
#        182924
#        199974
#        212420
#        226095
#        245398
#        257137
#        266784
#
# Disc length: 3605 seconds
#
# Revision: 0
# Processed by: cddbd v1.5.2PL0 Copyright (c) Steve Scherf et al.
# Submitted via: ExactAudioCopy v0.99pb5
#
DISCID=160e1314
DTITLE=Elvis Presley  - FTD 76-1 - Nevada Nights - 08-19-1974-CD 1
DYEAR=1900
DGENRE=
TTITLE0=01-Big Boss Man
TTITLE1=02-Proud Mary
TTITLE2=03-Down In The Alley
TTITLE3=04-Good Times Chalie's Got The Blues
TTITLE4=05-Never Been To Spain,
TTITLE5=06-It's Midnight
TTITLE6=07-If You Talk in your Sleep
TTITLE7=08-I'm  Leavin'
TTITLE8=09-Let me be there
TTITLE9=10-Softly As I Leave You
TTITLE10=11-If You Love Me
TTITLE11=12-Love Me Tender
TTITLE12=13-Polk Salad Annie
TTITLE13=14-Introductions
TTITLE14=15-Promised Land
TTITLE15=16-My Baby Left Me
TTITLE16=17-Bridge Over Troubled Water
TTITLE17=18-Fever
TTITLE18=19-Hound Dog
TTITLE19=20-Can't Help Falling In Love
EXTD=
EXTT0=
EXTT1=
EXTT2=
EXTT3=
EXTT4=
EXTT5=
EXTT6=
EXTT7=
EXTT8=
EXTT9=
EXTT10=
EXTT11=
EXTT12=
EXTT13=
EXTT14=
EXTT15=
EXTT16=
EXTT17=
EXTT18=
EXTT19=
PLAYORDER=
